<svg width="20" height="19" viewBox="0 0 20 19" fill="none" xmlns="http://www.w3.org/2000/svg">
<path fill-rule="evenodd" clip-rule="evenodd" d="M1.91395 10.0415C0.913035 9.03174 0.350952 7.66694 0.350952 6.24396C0.350952 4.8131 0.91895 3.44041 1.93071 2.42865C2.94248 1.41689 4.31517 0.848877 5.74604 0.848877C7.1769 0.848877 8.54959 1.41689 9.56136 2.42865L9.93016 2.79746L10.299 2.42865C11.3107 1.41689 12.6824 0.848877 14.1133 0.848877C15.5452 0.848877 16.9169 1.41689 17.9286 2.42865C18.9404 3.44041 19.5094 4.8131 19.5094 6.24396C19.5094 7.66694 18.9473 9.03174 17.9454 10.0415L10.6264 17.7915C10.4459 17.9828 10.1935 18.0913 9.93016 18.0913C9.66687 18.0913 9.41442 17.9828 9.23396 17.7915L1.91395 10.0415ZM9.93016 15.7384L16.555 8.72407L16.5747 8.70435C17.2265 8.05153 17.5933 7.16698 17.5933 6.24396C17.5933 5.32095 17.2265 4.4364 16.5747 3.78359C15.9219 3.13077 15.0363 2.76393 14.1133 2.76393C13.1913 2.76393 12.3057 3.13077 11.6529 3.78359L10.6076 4.82986C10.2329 5.2036 9.62644 5.2036 9.2527 4.82986L8.20641 3.78359C7.55458 3.13077 6.66905 2.76393 5.74604 2.76393C4.82302 2.76393 3.93847 3.13077 3.28566 3.78359C2.63284 4.4364 2.26699 5.32095 2.26699 6.24396C2.26699 7.16698 2.63284 8.05153 3.28566 8.70435C3.29256 8.71125 3.29848 8.71716 3.30439 8.72407L9.93016 15.7384Z" fill="white"/>
</svg>
