<svg width="12" height="14" viewBox="0 0 12 14" fill="none" xmlns="http://www.w3.org/2000/svg">
<path d="M6.22276 0.393799C3.32087 0.393799 0.960083 2.67093 0.960083 5.4699C0.960083 9.97076 5.69552 13.513 5.89713 13.6617L6.22279 13.9017L6.54824 13.6617C6.74985 13.513 11.4855 9.97076 11.4855 5.4699C11.4854 2.67089 9.12467 0.393799 6.22276 0.393799ZM6.22237 12.5799C5.18517 11.719 2.03234 8.82506 2.03234 5.4699C2.03234 3.24116 3.91189 1.42805 6.22276 1.42805C8.53321 1.42805 10.4132 3.24119 10.4132 5.4699C10.4132 8.81787 7.25912 11.7176 6.22237 12.5799Z" fill="#333333"/>
<path d="M6.31644 7.99188C4.87672 7.99188 3.70538 6.86458 3.70538 5.47888C3.70538 4.09311 4.87668 2.96567 6.31644 2.96567C7.75617 2.96567 8.92747 4.09307 8.92747 5.47888C8.92747 6.86458 7.75617 7.99188 6.31644 7.99188ZM6.31644 3.78988C5.34886 3.78988 4.56165 4.54759 4.56165 5.47892C4.56165 6.41013 5.34886 7.16773 6.31644 7.16773C7.28399 7.16773 8.0712 6.41013 8.0712 5.47892C8.0712 4.54756 7.28403 3.78988 6.31644 3.78988Z" fill="#333333"/>
</svg>
